<?xml version="1.0" standalone="no"?>
<!DOCTYPE svg PUBLIC "-//W3C//DTD SVG 20010904//EN"
 "http://www.w3.org/TR/2001/REC-SVG-20010904/DTD/svg10.dtd">
<svg version="1.0" xmlns="http://www.w3.org/2000/svg"
 width="300.000000pt" height="300.000000pt" fill="#f6cba3" viewBox="0 0 300.000000 300.000000"
 preserveAspectRatio="xMidYMid meet">
<metadata>

</metadata>
<g transform="translate(0.000000,300.000000) scale(0.100000,-0.100000)"
fill="#f6cba3" stroke="#f6cba3">
<path  d="M1142 2674 c-2 -98 -5 -123 -17 -128 -10 -4 -21 7 -34 33 -20 39
-124 141 -144 141 -6 0 -49 -37 -95 -82 -191 -188 -271 -265 -316 -306 -26
-24 -45 -46 -42 -50 3 -3 16 4 29 15 52 48 110 56 164 23 72 -44 68 13 71
-845 l2 -770 -245 -244 c-134 -135 -242 -247 -240 -250 3 -2 15 5 28 16 47 44
36 43 788 43 l722 0 403 403 404 404 0 317 c0 342 2 358 54 405 14 14 26 29
26 33 0 5 -107 -98 -237 -229 -131 -131 -375 -374 -543 -539 -168 -165 -329
-326 -358 -357 l-54 -57 -123 0 c-99 0 -127 3 -139 16 -29 28 -34 21 186 241
l183 183 5 529 c3 291 7 532 10 535 119 129 187 196 199 196 27 0 80 -38 101
-72 18 -30 20 -51 20 -207 l0 -175 -27 -28 c-14 -15 -24 -30 -22 -33 3 -2 105
94 227 213 l222 218 0 262 c0 144 -3 262 -7 262 -5 0 -6 -44 -5 -98 3 -78 1
-101 -11 -110 -13 -11 -22 -5 -58 33 -24 25 -70 59 -103 75 l-61 30 -222 1
-223 1 -174 -173 c-218 -219 -283 -279 -300 -279 -32 0 -36 28 -39 276 -1 137
-3 194 -5 128z m1004 -15 c25 -13 73 -49 106 -80 l60 -56 -6 -123 -5 -123
-143 -143 c-79 -79 -149 -144 -155 -144 -10 0 -13 32 -13 125 0 164 -15 200
-104 252 -24 14 -85 17 -104 4 -8 -5 -29 -3 -50 5 -24 8 -89 13 -184 14 -82 0
-148 3 -148 8 0 4 62 69 138 144 158 158 119 144 389 141 158 -1 176 -3 219
-24z m-1125 -51 c13 -17 39 -49 57 -71 31 -38 32 -41 32 -141 0 -77 4 -107 16
-124 14 -21 14 -25 0 -47 -22 -34 -24 -421 -2 -463 12 -23 12 -31 0 -52 -10
-20 -13 -89 -14 -316 0 -270 -1 -293 -19 -315 -27 -34 -270 -273 -281 -277 -6
-2 -10 254 -10 695 0 473 -4 711 -11 738 -14 53 -53 102 -95 122 -19 9 -34 22
-34 28 0 14 260 270 281 277 19 6 51 -16 80 -54z m719 -278 c6 -11 8 -26 4
-32 -18 -29 -512 -521 -534 -533 -18 -9 -31 -10 -43 -4 -15 9 -17 32 -17 227
l0 217 77 72 78 72 212 1 c203 0 213 -1 223 -20z m-157 -522 c1 -139 2 -347 2
-462 0 -209 0 -210 -26 -250 -14 -23 -84 -97 -155 -166 l-129 -125 -7 145 c-4
80 -7 156 -7 170 0 14 2 164 5 335 l5 309 147 148 c81 81 150 148 155 148 4 0
8 -114 10 -252z m-390 -675 l-38 -32 -3 291 -2 292 37 38 38 39 3 -298 3 -298
-38 -32z m1383 -28 c-4 -15 -197 -217 -282 -295 -17 -16 -23 51 -22 250 1 174
-2 230 -13 247 -12 21 -4 31 151 185 l165 163 3 -265 c1 -146 0 -274 -2 -285z
m-346 185 c7 -14 10 -113 8 -300 l-3 -279 -29 -30 -30 -31 -286 0 c-296 0
-310 2 -310 41 0 23 599 619 622 619 10 0 22 -9 28 -20z m-1019 -190 c18 -10
19 -23 19 -197 l0 -187 -32 -33 -32 -33 -174 0 c-179 0 -212 6 -212 40 0 11
80 99 201 219 110 111 203 201 205 201 3 0 14 -5 25 -10z m-412 -475 c41 -21
343 -20 385 2 26 13 32 13 65 -1 46 -21 219 -20 272 1 32 13 41 12 74 -1 30
-13 81 -16 262 -16 152 0 224 -3 221 -10 -2 -6 -66 -74 -143 -150 l-140 -140
-677 0 c-383 0 -678 4 -678 9 0 11 311 321 322 321 5 0 22 -7 37 -15z"/>
</g>
</svg>
